Token.ufo
<glyph name="zero" format="1">
  <advance width="604"/>
  <unicode hex="0030"/>
  <outline>
    <contour>
      <point x="521.363" y="148.127"/>
      <point x="444.837" y="-7.321"/>
      <point x="302" y="-7.321" type="curve" smooth="yes"/>
      <point x="159.27" y="-7.321"/>
      <point x="82.637" y="148.127"/>
      <point x="82.637" y="340" type="curve" smooth="yes"/>
      <point x="82.637" y="531.853"/>
      <point x="159.27" y="687.321"/>
      <point x="302" y="687.321" type="curve" smooth="yes"/>
      <point x="444.837" y="687.321"/>
      <point x="521.363" y="531.853"/>
      <point x="521.363" y="340" type="curve" smooth="yes"/>
    </contour>
  </outline>
</glyph>
<glyph name="one" format="1">
  <advance width="604"/>
  <unicode hex="0031"/>
  <outline>
    <contour>
      <point x="216.336" y="622.694" type="move"/>
      <point x="320.664" y="680" type="line"/>
      <point x="320.664" y="0" type="line"/>
    </contour>
  </outline>
</glyph>
<glyph name="two" format="1">
  <advance width="604"/>
  <unicode hex="0032"/>
  <outline>
    <contour>
      <point x="112.169" y="591.786" type="move"/>
      <point x="154.656" y="655.833"/>
      <point x="217.723" y="687.321"/>
      <point x="300.112" y="687.321" type="curve" smooth="yes"/>
      <point x="359.646" y="687.321"/>
      <point x="477.879" y="657.337"/>
      <point x="477.879" y="526.446" type="curve" smooth="yes"/>
      <point x="477.879" y="325.303"/>
      <point x="106.504" y="206.931"/>
      <point x="106.504" y="0" type="curve"/>
      <point x="497.496" y="0" type="line"/>
    </contour>
  </outline>
</glyph>
<glyph name="three" format="1">
  <advance width="604"/>
  <unicode hex="0033"/>
  <outline>
    <contour>
      <point x="111.739" y="88.283" type="move"/>
      <point x="154.248" y="24.168"/>
      <point x="217.365" y="-7.321"/>
      <point x="299.778" y="-7.321" type="curve" smooth="yes"/>
      <point x="400.963" y="-7.321"/>
      <point x="492.261" y="58.053"/>
      <point x="492.261" y="174.422" type="curve" smooth="yes"/>
      <point x="492.261" y="293.764"/>
      <point x="405.457" y="364.089"/>
      <point x="272.522" y="364.089" type="curve" smooth="yes"/>
      <point x="270.283" y="364.089" type="line"/>
      <point x="403.202" y="364.089"/>
      <point x="475.415" y="434.151"/>
      <point x="475.415" y="535.546" type="curve" smooth="yes"/>
      <point x="475.415" y="635.873"/>
      <point x="398.706" y="687.321"/>
      <point x="297.521" y="687.321" type="curve" smooth="yes"/>
      <point x="230.975" y="687.321"/>
      <point x="177.025" y="666.748"/>
      <point x="136.334" y="625.096" type="curve"/>
    </contour>
  </outline>
</glyph>
<glyph name="four" format="1">
  <advance width="604"/>
  <unicode hex="0034"/>
  <outline>
    <contour>
      <point x="391.074" y="0" type="move"/>
      <point x="391.074" y="680" type="line"/>
      <point x="82.639" y="177.343" type="line"/>
      <point x="521.361" y="177.343" type="line"/>
    </contour>
  </outline>
</glyph>
<glyph name="five" format="1">
  <advance width="604"/>
  <unicode hex="0035"/>
  <outline>
    <contour>
      <point x="462.051" y="680" type="move"/>
      <point x="165.916" y="680" type="line"/>
      <point x="138.049" y="339.957" type="line"/>
      <point x="192.646" y="381.75"/>
      <point x="236.311" y="397.985"/>
      <point x="305.097" y="397.985" type="curve" smooth="yes"/>
      <point x="439.553" y="397.985"/>
      <point x="496.461" y="307.279"/>
      <point x="496.461" y="195.337" type="curve" smooth="yes"/>
      <point x="496.461" y="83.359"/>
      <point x="426.136" y="-7.321"/>
      <point x="301.441" y="-7.321" type="curve" smooth="yes"/>
      <point x="219" y="-7.321"/>
      <point x="150.032" y="24.16"/>
      <point x="107.539" y="88.275" type="curve"/>
    </contour>
  </outline>
</glyph>
<glyph name="six" format="1">
  <advance width="604"/>
  <unicode hex="0036"/>
  <outline>
    <contour>
      <point x="135.686" y="106.856"/>
      <point x="129.442" y="123.533"/>
      <point x="125.25" y="141.183" type="curve" smooth="yes"/>
      <point x="121.156" y="158.432"/>
      <point x="119.021" y="176.573"/>
      <point x="119.021" y="195.345" type="curve" smooth="yes"/>
      <point x="119.021" y="307.287"/>
      <point x="195.102" y="397.992"/>
      <point x="310.001" y="397.992" type="curve" smooth="yes"/>
      <point x="425.005" y="397.992"/>
      <point x="500.998" y="307.287"/>
      <point x="500.998" y="195.345" type="curve" smooth="yes"/>
      <point x="500.998" y="83.367"/>
      <point x="425.005" y="-7.321"/>
      <point x="310.001" y="-7.321" type="curve" smooth="yes"/>
      <point x="248.388" y="-7.321"/>
      <point x="197.918" y="18.746"/>
      <point x="164.4" y="60.187" type="curve" smooth="yes"/>
      <point x="156.591" y="69.838"/>
      <point x="149.7" y="80.318"/>
      <point x="143.798" y="91.494" type="curve" smooth="yes"/>
    </contour>
    <contour>
      <point x="469" y="625.095" type="move"/>
      <point x="429.256" y="666.748"/>
      <point x="380.973" y="687.321"/>
      <point x="315.931" y="687.321" type="curve" smooth="yes"/>
      <point x="218.158" y="687.321"/>
      <point x="129.868" y="614.075"/>
      <point x="110.799" y="442.968" type="curve" smooth="yes"/>
      <point x="99.23" y="339.375"/>
      <point x="92.983" y="187.721"/>
      <point x="143.798" y="91.494" type="curve"/>
    </contour>
  </outline>
</glyph>
<glyph name="seven" format="1">
  <advance width="604"/>
  <unicode hex="0037"/>
  <outline>
    <contour>
      <point x="100.918" y="680" type="move"/>
      <point x="503.082" y="680" type="line"/>
      <point x="164.403" y="0" type="line"/>
    </contour>
  </outline>
</glyph>
<glyph name="eight" format="1">
  <advance width="604"/>
  <unicode hex="0038"/>
  <outline>
    <contour>
      <point x="187.014" y="369.53"/>
      <point x="111.003" y="285.21"/>
      <point x="111.003" y="181.103" type="curve" smooth="yes"/>
      <point x="111.003" y="76.998"/>
      <point x="187.014" y="-7.321"/>
      <point x="302" y="-7.321" type="curve" smooth="yes"/>
      <point x="416.986" y="-7.321"/>
      <point x="492.997" y="76.998"/>
      <point x="492.997" y="181.103" type="curve" smooth="yes"/>
      <point x="492.997" y="285.21"/>
      <point x="416.986" y="369.53"/>
      <point x="302" y="369.53" type="curve" smooth="yes"/>
    </contour>
    <contour>
      <point x="205.049" y="369.53"/>
      <point x="140.987" y="440.659"/>
      <point x="140.987" y="528.426" type="curve" smooth="yes"/>
      <point x="140.987" y="616.192"/>
      <point x="205.049" y="687.322"/>
      <point x="302" y="687.322" type="curve" smooth="yes"/>
      <point x="398.951" y="687.322"/>
      <point x="463.013" y="616.192"/>
      <point x="463.013" y="528.426" type="curve" smooth="yes"/>
      <point x="463.013" y="440.659"/>
      <point x="398.951" y="369.53"/>
      <point x="302" y="369.53" type="curve" smooth="yes"/>
    </contour>
  </outline>
</glyph>
<glyph name="nine" format="1">
  <advance width="604"/>
  <unicode hex="0039"/>
  <outline>
    <contour>
      <point x="468.308" y="573.144"/>
      <point x="474.552" y="556.467"/>
      <point x="478.744" y="538.817" type="curve" smooth="yes"/>
      <point x="482.837" y="521.568"/>
      <point x="484.973" y="503.427"/>
      <point x="484.973" y="484.655" type="curve" smooth="yes"/>
      <point x="484.973" y="372.713"/>
      <point x="408.892" y="282.008"/>
      <point x="293.993" y="282.008" type="curve" smooth="yes"/>
      <point x="178.989" y="282.008"/>
      <point x="102.996" y="372.713"/>
      <point x="102.996" y="484.655" type="curve" smooth="yes"/>
      <point x="102.996" y="596.633"/>
      <point x="178.989" y="687.321"/>
      <point x="293.993" y="687.321" type="curve" smooth="yes"/>
      <point x="355.606" y="687.321"/>
      <point x="406.076" y="661.255"/>
      <point x="439.594" y="619.813" type="curve" smooth="yes"/>
      <point x="447.403" y="610.162"/>
      <point x="454.294" y="599.682"/>
      <point x="460.196" y="588.506" type="curve" smooth="yes"/>
    </contour>
    <contour>
      <point x="134.993" y="54.905" type="move"/>
      <point x="174.738" y="13.252"/>
      <point x="223.021" y="-7.321"/>
      <point x="288.063" y="-7.321" type="curve"/>
    </contour>
    <contour>
      <point x="288.063" y="-7.321" type="move"/>
      <point x="385.835" y="-7.321"/>
      <point x="474.126" y="65.925"/>
      <point x="493.195" y="237.032" type="curve" smooth="yes"/>
      <point x="504.764" y="340.625"/>
      <point x="511.011" y="492.279"/>
      <point x="460.196" y="588.506" type="curve" name="butt"/>
    </contour>
  </outline>
</glyph>
<glyph name="A" format="1">
  <advance width="654"/>
  <unicode hex="0041"/>
  <outline>
    <contour>
      <point x="61.925" y="0" type="move"/>
      <point x="327" y="680" type="line"/>
      <point x="592.075" y="0" type="line"/>
    </contour>
    <contour>
      <point x="141.495" y="204.115" type="move"/>
      <point x="512.505" y="204.115" type="line"/>
    </contour>
  </outline>
</glyph>
<glyph name="B" format="1">
  <advance width="659"/>
  <unicode hex="0042"/>
  <outline>
    <contour>
      <point x="328.857" y="356.941" type="move"/>
      <point x="465.389" y="356.662"/>
      <point x="519.828" y="440.942"/>
      <point x="519.828" y="518.47" type="curve" name="butt" smooth="yes"/>
    </contour>
    <contour>
      <point x="519.828" y="518.47" type="move"/>
      <point x="519.828" y="595.998"/>
      <point x="465.389" y="680.261"/>
      <point x="328.857" y="680" type="curve" smooth="yes"/>
      <point x="138.08" y="680" type="line"/>
      <point x="138.08" y="0" type="line"/>
      <point x="348.887" y="0" type="line" smooth="yes"/>
      <point x="499.762" y="0"/>
      <point x="559.92" y="92.799"/>
      <point x="559.92" y="178.479" type="curve" smooth="yes"/>
      <point x="559.92" y="264.159"/>
      <point x="499.762" y="357.29"/>
      <point x="348.887" y="356.941" type="curve" smooth="yes"/>
      <point x="138.08" y="356.941" type="line"/>
    </contour>
  </outline>
</glyph>
<glyph name="C" format="1">
  <advance width="631"/>
  <unicode hex="0043"/>
  <outline>
    <contour>
      <point x="541.975" y="62" type="move"/>
      <point x="498.644" y="17.923"/>
      <point x="443.381" y="-7.321"/>
      <point x="362.368" y="-7.321" type="curve" smooth="yes"/>
      <point x="187.535" y="-7.321"/>
      <point x="90.024" y="148.146"/>
      <point x="90.024" y="340" type="curve" smooth="yes"/>
      <point x="90.024" y="531.854"/>
      <point x="187.535" y="687.321"/>
      <point x="362.368" y="687.321" type="curve" smooth="yes"/>
      <point x="443.381" y="687.321"/>
      <point x="498.644" y="662.025"/>
      <point x="541.975" y="617.976" type="curve"/>
    </contour>
  </outline>
</glyph>
<glyph name="D" format="1">
  <advance width="691"/>
  <unicode hex="0044"/>
  <outline>
    <contour>
      <point x="530.681" y="-7.321"/>
      <point x="598.346" y="148.129"/>
      <point x="598.346" y="340" type="curve" smooth="yes"/>
      <point x="598.346" y="531.854"/>
      <point x="530.681" y="687.321"/>
      <point x="277.773" y="687.321" type="curve" smooth="yes"/>
      <point x="135.654" y="687.321" type="line"/>
      <point x="135.654" y="-7.321" type="line"/>
      <point x="277.773" y="-7.321" type="line" smooth="yes"/>
    </contour>
  </outline>
</glyph>
<glyph name="E" format="1">
  <advance width="611"/>
  <unicode hex="0045"/>
  <outline>
    <contour>
      <point x="136.029" y="339.974" type="move"/>
      <point x="465.414" y="339.974" type="line"/>
    </contour>
    <contour>
      <point x="526.221" y="680" type="move"/>
      <point x="135.779" y="680" type="line"/>
      <point x="135.779" y="0" type="line"/>
      <point x="526.221" y="0" type="line"/>
    </contour>
  </outline>
</glyph>
<glyph name="G" format="1">
  <advance width="712"/>
  <unicode hex="0047"/>
  <outline>
    <contour>
      <point x="563.593" y="607.025" type="move"/>
      <point x="515.363" y="655.518"/>
      <point x="449.306" y="687.321"/>
      <point x="368.258" y="687.321" type="curve" smooth="yes"/>
      <point x="193.425" y="687.321"/>
      <point x="89.705" y="531.871"/>
      <point x="89.705" y="340" type="curve" smooth="yes"/>
      <point x="89.705" y="148.129"/>
      <point x="189.769" y="-7.321"/>
      <point x="364.602" y="-7.321" type="curve" smooth="yes"/>
      <point x="538.665" y="-7.321"/>
      <point x="619.519" y="120.838"/>
      <point x="616.197" y="316.892" type="curve"/>
      <point x="428.174" y="316.892" type="line"/>
    </contour>
  </outline>
</glyph>
<glyph name="H" format="1">
  <advance width="728"/>
  <unicode hex="0048"/>
  <outline>
    <contour>
      <point x="135.5" y="680" type="move"/>
      <point x="135.5" y="0" type="line"/>
    </contour>
    <contour>
      <point x="592.5" y="0" type="move"/>
      <point x="592.5" y="680" type="line"/>
    </contour>
    <contour>
      <point x="135.75" y="339.975" type="move"/>
      <point x="592.25" y="339.975" type="line"/>
    </contour>
  </outline>
</glyph>
<glyph name="I" format="1">
  <advance width="272"/>
  <unicode hex="0049"/>
  <outline>
    <contour>
      <point x="136" y="680" type="move"/>
      <point x="136" y="0" type="line"/>
    </contour>
  </outline>
</glyph>
<glyph name="J" format="1">
  <advance width="627"/>
  <unicode hex="004A"/>
  <outline>
    <contour>
      <point x="497.708" y="680" type="move"/>
      <point x="497.708" y="262.852" type="line" smooth="yes"/>
      <point x="498.164" y="69.669"/>
      <point x="378.909" y="-7.321"/>
      <point x="269.222" y="-7.321" type="curve" smooth="yes"/>
      <point x="195.453" y="-7.321"/>
      <point x="117.396" y="27.474"/>
      <point x="74.29" y="109.029" type="curve"/>
    </contour>
  </outline>
</glyph>
<glyph name="K" format="1">
  <advance width="664"/>
  <unicode hex="004B"/>
  <outline>
    <contour>
      <point x="136.738" y="251.529" type="move"/>
      <point x="567.028" y="680" type="line"/>
    </contour>
    <contour>
      <point x="285.722" y="399.53" type="move"/>
      <point x="593.513" y="0" type="line"/>
    </contour>
    <contour>
      <point x="136.488" y="680" type="move"/>
      <point x="136.488" y="0" type="line"/>
    </contour>
  </outline>
</glyph>
<glyph name="L" format="1">
  <advance width="591"/>
  <unicode hex="004C"/>
  <outline>
    <contour>
      <point x="135.771" y="680" type="move"/>
      <point x="135.771" y="0" type="line"/>
      <point x="526.229" y="0" type="line"/>
    </contour>
  </outline>
</glyph>
<glyph name="M" format="1">
  <advance width="802"/>
  <unicode hex="004D"/>
  <outline>
    <contour>
      <point x="666.057" y="0" type="move"/>
      <point x="666.057" y="680" type="line"/>
      <point x="401" y="152.337" type="line"/>
      <point x="135.943" y="680" type="line"/>
      <point x="135.943" y="0" type="line"/>
    </contour>
  </outline>
</glyph>
<glyph name="N" format="1">
  <advance width="728"/>
  <unicode hex="004E"/>
  <outline>
    <contour>
      <point x="592.503" y="680" type="move"/>
      <point x="592.503" y="0" type="line"/>
      <point x="135.497" y="680" type="line"/>
      <point x="135.497" y="0" type="line"/>
    </contour>
  </outline>
</glyph>
<glyph name="O" format="1">
  <advance width="718"/>
  <unicode hex="004F"/>
  <outline>
    <contour>
      <point x="627.744" y="148.153"/>
      <point x="533.982" y="-7.322"/>
      <point x="359" y="-7.322" type="curve" smooth="yes"/>
      <point x="184.16" y="-7.322"/>
      <point x="90.256" y="148.153"/>
      <point x="90.256" y="340.016" type="curve" smooth="yes"/>
      <point x="90.256" y="531.863"/>
      <point x="184.16" y="687.322"/>
      <point x="359" y="687.322" type="curve" smooth="yes"/>
      <point x="533.982" y="687.322"/>
      <point x="627.744" y="531.863"/>
      <point x="627.744" y="340.016" type="curve" smooth="yes"/>
    </contour>
  </outline>
</glyph>
<glyph name="P" format="1">
  <advance width="639"/>
  <unicode hex="0050"/>
  <outline>
    <contour>
      <point x="136.069" y="0" type="move"/>
      <point x="136.069" y="680" type="line"/>
      <point x="346.887" y="680" type="line" smooth="yes"/>
      <point x="497.788" y="680.315"/>
      <point x="557.931" y="587.215"/>
      <point x="557.931" y="501.512" type="curve" smooth="yes"/>
      <point x="557.931" y="415.81"/>
      <point x="497.788" y="322.69"/>
      <point x="346.887" y="323.041" type="curve" smooth="yes"/>
      <point x="136.319" y="323.041" type="line"/>
    </contour>
  </outline>
</glyph>
<glyph name="Q" format="1">
  <advance width="718"/>
  <unicode hex="0051"/>
  <outline>
    <contour>
      <point x="627.735" y="148.155"/>
      <point x="533.98" y="-7.32"/>
      <point x="359" y="-7.32" type="curve" smooth="yes"/>
      <point x="184.16" y="-7.32"/>
      <point x="90.265" y="148.155"/>
      <point x="90.265" y="340.015" type="curve" smooth="yes"/>
      <point x="90.265" y="531.865"/>
      <point x="184.16" y="687.32"/>
      <point x="359" y="687.32" type="curve" smooth="yes"/>
      <point x="533.98" y="687.32"/>
      <point x="627.735" y="531.865"/>
      <point x="627.735" y="340.015" type="curve" smooth="yes"/>
    </contour>
    <contour>
      <point x="627.725" y="0" type="move"/>
      <point x="422.225" y="172.33" type="line"/>
    </contour>
  </outline>
</glyph>
<glyph name="R" format="1">
  <advance width="672"/>
  <unicode hex="0052"/>
  <outline>
    <contour>
      <point x="135.565" y="0" type="move"/>
      <point x="135.565" y="680" type="line"/>
      <point x="346.381" y="680" type="line" smooth="yes"/>
      <point x="497.265" y="680"/>
      <point x="557.444" y="591.586"/>
      <point x="557.444" y="509.979" type="curve"/>
      <point x="557.444" y="428.371"/>
      <point x="497.265" y="339.696"/>
      <point x="346.381" y="340.009" type="curve" smooth="yes"/>
      <point x="323.709" y="340.009" type="line"/>
    </contour>
    <contour>
      <point x="566.436" y="0" type="move"/>
      <point x="460.634" y="257.859" type="line" smooth="yes"/>
      <point x="440.228" y="307.591"/>
      <point x="408.747" y="340.009"/>
      <point x="323.709" y="340.009" type="curve" smooth="yes"/>
      <point x="135.815" y="340.009" type="line"/>
    </contour>
  </outline>
</glyph>
<glyph name="S" format="1">
  <advance width="628"/>
  <unicode hex="0053"/>
  <outline>
    <contour>
      <point x="502.25" y="603.152" type="move"/>
      <point x="456.854" y="658.274"/>
      <point x="389.346" y="687.321"/>
      <point x="306.881" y="687.321" type="curve" smooth="yes"/>
      <point x="201.812" y="687.321"/>
      <point x="122.181" y="628.114"/>
      <point x="122.181" y="533.998" type="curve" smooth="yes"/>
      <point x="122.181" y="436.786"/>
      <point x="196.075" y="392.859"/>
      <point x="306.881" y="350.787" type="curve" smooth="yes"/>
      <point x="407.242" y="312.685"/>
      <point x="521.668" y="284.17"/>
      <point x="521.668" y="156.186" type="curve" smooth="yes"/>
      <point x="521.668" y="71.797"/>
      <point x="462.958" y="-7.321"/>
      <point x="319.318" y="-7.321" type="curve" smooth="yes"/>
      <point x="235.367" y="-7.321"/>
      <point x="148.125" y="35"/>
      <point x="106.332" y="101.869" type="curve"/>
    </contour>
  </outline>
</glyph>
<glyph name="T" format="1">
  <advance width="608"/>
  <unicode hex="0054"/>
  <outline>
    <contour>
      <point x="303.982" y="679.75" type="move"/>
      <point x="303.982" y="0" type="line"/>
    </contour>
    <contour>
      <point x="57.228" y="680" type="move"/>
      <point x="550.772" y="680" type="line"/>
    </contour>
  </outline>
</glyph>
<glyph name="U" format="1">
  <advance width="700"/>
  <unicode hex="0055"/>
  <outline>
    <contour>
      <point x="578.512" y="680" type="move"/>
      <point x="578.512" y="262.871" type="line" smooth="yes"/>
      <point x="578.949" y="69.67"/>
      <point x="459.703" y="-7.321"/>
      <point x="350" y="-7.321" type="curve" smooth="yes"/>
      <point x="240.297" y="-7.321"/>
      <point x="121.067" y="69.67"/>
      <point x="121.488" y="262.871" type="curve" smooth="yes"/>
      <point x="121.488" y="680" type="line"/>
    </contour>
  </outline>
</glyph>
<glyph name="V" format="1">
  <advance width="626"/>
  <unicode hex="0056"/>
  <outline>
    <contour>
      <point x="47.925" y="680" type="move"/>
      <point x="313" y="0" type="line"/>
      <point x="578.075" y="680" type="line"/>
    </contour>
  </outline>
</glyph>
<glyph name="W" format="1">
  <advance width="778"/>
  <unicode hex="0057"/>
  <outline>
    <contour>
      <point x="715.977" y="680" type="move"/>
      <point x="561" y="0" type="line"/>
      <point x="389" y="582.005" type="line"/>
      <point x="217" y="0" type="line"/>
      <point x="62.023" y="680" type="line"/>
    </contour>
  </outline>
</glyph>
<glyph name="X" format="1">
  <advance width="640"/>
  <unicode hex="0058"/>
  <outline>
    <contour>
      <point x="91.487" y="680" type="move"/>
      <point x="548.513" y="0" type="line"/>
    </contour>
    <contour>
      <point x="548.513" y="680" type="move"/>
      <point x="91.487" y="0" type="line"/>
    </contour>
  </outline>
</glyph>
<glyph name="Y" format="1">
  <advance width="624"/>
  <unicode hex="0059"/>
  <outline>
    <contour>
      <point x="65.215" y="680" type="move"/>
      <point x="312" y="325.856" type="line"/>
      <point x="558.785" y="680" type="line"/>
    </contour>
    <contour>
      <point x="312" y="326.106" type="move"/>
      <point x="312" y="0" type="line"/>
    </contour>
  </outline>
</glyph>
